<svg width="101" height="19" viewBox="0 0 101 19" fill="none" xmlns="http://www.w3.org/2000/svg">
<path d="M20.2532 9.55806C20.2532 4.27928 15.7193 0 10.1266 0C4.53382 0 0 4.27928 0 9.55806C0 14.3288 3.70315 18.283 8.5443 19V12.3209H5.9731V9.55806H8.5443V7.4523C8.5443 5.05681 10.0561 3.73362 12.3693 3.73362C13.4772 3.73362 14.6361 3.9203 14.6361 3.9203V6.27247H13.3591C12.1012 6.27247 11.7089 7.00925 11.7089 7.76512V9.55806H14.5174L14.0684 12.3209H11.7089V19C16.55 18.283 20.2532 14.3288 20.2532 9.55806Z" fill="#1877F2"/>
<path d="M31.0844 9.73402H36.1384V10.938H31.0844V9.73402ZM31.2244 14.9H29.8244V5.10002H36.7404V6.31802H31.2244V14.9ZM42.8477 14.9V13.332L42.7777 13.038V10.364C42.7777 9.79469 42.6097 9.35602 42.2737 9.04802C41.947 8.73069 41.4523 8.57202 40.7897 8.57202C40.351 8.57202 39.9217 8.64669 39.5017 8.79602C39.0817 8.93602 38.727 9.12736 38.4377 9.37002L37.8777 8.36202C38.2603 8.05402 38.7177 7.82069 39.2497 7.66202C39.791 7.49402 40.3557 7.41002 40.9437 7.41002C41.961 7.41002 42.745 7.65736 43.2957 8.15202C43.8463 8.64669 44.1217 9.40269 44.1217 10.42V14.9H42.8477ZM40.4117 14.984C39.861 14.984 39.3757 14.8907 38.9557 14.704C38.545 14.5174 38.2277 14.2607 38.0037 13.934C37.7797 13.598 37.6677 13.22 37.6677 12.8C37.6677 12.3987 37.761 12.0347 37.9477 11.708C38.1437 11.3814 38.4563 11.12 38.8857 10.924C39.3243 10.728 39.9123 10.63 40.6497 10.63H43.0017V11.596H40.7057C40.0337 11.596 39.581 11.708 39.3477 11.932C39.1143 12.156 38.9977 12.4267 38.9977 12.744C38.9977 13.108 39.1423 13.402 39.4317 13.626C39.721 13.8407 40.1223 13.948 40.6357 13.948C41.1397 13.948 41.5783 13.836 41.9517 13.612C42.3343 13.388 42.6097 13.0614 42.7777 12.632L43.0437 13.556C42.8663 13.9947 42.5537 14.3447 42.1057 14.606C41.6577 14.858 41.093 14.984 40.4117 14.984ZM49.8428 14.984C49.0868 14.984 48.4102 14.8207 47.8128 14.494C47.2248 14.1674 46.7628 13.7194 46.4268 13.15C46.0908 12.5807 45.9228 11.9274 45.9228 11.19C45.9228 10.4527 46.0908 9.79936 46.4268 9.23002C46.7628 8.66069 47.2248 8.21736 47.8128 7.90002C48.4102 7.57336 49.0868 7.41002 49.8428 7.41002C50.5148 7.41002 51.1122 7.54536 51.6348 7.81602C52.1668 8.07736 52.5775 8.46936 52.8668 8.99202L51.8448 9.65002C51.6022 9.28602 51.3035 9.02002 50.9488 8.85202C50.6035 8.67469 50.2302 8.58602 49.8288 8.58602C49.3435 8.58602 48.9095 8.69336 48.5268 8.90802C48.1442 9.12269 47.8408 9.42602 47.6168 9.81802C47.3928 10.2007 47.2808 10.658 47.2808 11.19C47.2808 11.722 47.3928 12.184 47.6168 12.576C47.8408 12.968 48.1442 13.2714 48.5268 13.486C48.9095 13.7007 49.3435 13.808 49.8288 13.808C50.2302 13.808 50.6035 13.724 50.9488 13.556C51.3035 13.3787 51.6022 13.108 51.8448 12.744L52.8668 13.388C52.5775 13.9014 52.1668 14.298 51.6348 14.578C51.1122 14.8487 50.5148 14.984 49.8428 14.984ZM57.8015 14.984C57.0082 14.984 56.3082 14.8207 55.7015 14.494C55.1042 14.1674 54.6375 13.7194 54.3015 13.15C53.9748 12.5807 53.8115 11.9274 53.8115 11.19C53.8115 10.4527 53.9702 9.79936 54.2875 9.23002C54.6142 8.66069 55.0575 8.21736 55.6175 7.90002C56.1868 7.57336 56.8262 7.41002 57.5355 7.41002C58.2542 7.41002 58.8888 7.56869 59.4395 7.88602C59.9902 8.20336 60.4195 8.65136 60.7275 9.23002C61.0448 9.79936 61.2035 10.4667 61.2035 11.232C61.2035 11.288 61.1988 11.3534 61.1895 11.428C61.1895 11.5027 61.1848 11.5727 61.1755 11.638H54.8615V10.672H60.4755L59.9295 11.008C59.9388 10.532 59.8408 10.1074 59.6355 9.73402C59.4302 9.36069 59.1455 9.07136 58.7815 8.86602C58.4268 8.65136 58.0115 8.54402 57.5355 8.54402C57.0688 8.54402 56.6535 8.65136 56.2895 8.86602C55.9255 9.07136 55.6408 9.36536 55.4355 9.74802C55.2302 10.1214 55.1275 10.5507 55.1275 11.036V11.26C55.1275 11.7547 55.2395 12.198 55.4635 12.59C55.6968 12.9727 56.0188 13.2714 56.4295 13.486C56.8402 13.7007 57.3115 13.808 57.8435 13.808C58.2822 13.808 58.6788 13.7334 59.0335 13.584C59.3975 13.4347 59.7148 13.2107 59.9855 12.912L60.7275 13.78C60.3915 14.172 59.9715 14.4707 59.4675 14.676C58.9728 14.8814 58.4175 14.984 57.8015 14.984ZM67.0038 14.984C66.3691 14.984 65.7951 14.844 65.2818 14.564C64.7778 14.2747 64.3764 13.85 64.0778 13.29C63.7884 12.73 63.6438 12.03 63.6438 11.19C63.6438 10.35 63.7931 9.65002 64.0918 9.09002C64.3998 8.53002 64.8058 8.11002 65.3098 7.83002C65.8231 7.55002 66.3878 7.41002 67.0038 7.41002C67.7318 7.41002 68.3758 7.56869 68.9358 7.88602C69.4958 8.20336 69.9391 8.64669 70.2658 9.21602C70.5924 9.77602 70.7558 10.434 70.7558 11.19C70.7558 11.946 70.5924 12.6087 70.2658 13.178C69.9391 13.7474 69.4958 14.1907 68.9358 14.508C68.3758 14.8254 67.7318 14.984 67.0038 14.984ZM63.0698 14.9V4.51202H64.4138V9.45402L64.2738 11.176L64.3578 12.898V14.9H63.0698ZM66.8918 13.808C67.3678 13.808 67.7924 13.7007 68.1658 13.486C68.5484 13.2714 68.8471 12.968 69.0618 12.576C69.2858 12.1747 69.3978 11.7127 69.3978 11.19C69.3978 10.658 69.2858 10.2007 69.0618 9.81802C68.8471 9.42602 68.5484 9.12269 68.1658 8.90802C67.7924 8.69336 67.3678 8.58602 66.8918 8.58602C66.4251 8.58602 66.0004 8.69336 65.6178 8.90802C65.2444 9.12269 64.9458 9.42602 64.7218 9.81802C64.5071 10.2007 64.3998 10.658 64.3998 11.19C64.3998 11.7127 64.5071 12.1747 64.7218 12.576C64.9458 12.968 65.2444 13.2714 65.6178 13.486C66.0004 13.7007 66.4251 13.808 66.8918 13.808ZM75.7907 14.984C75.0441 14.984 74.3814 14.8207 73.8027 14.494C73.2241 14.1674 72.7667 13.7194 72.4307 13.15C72.0947 12.5714 71.9267 11.918 71.9267 11.19C71.9267 10.4527 72.0947 9.79936 72.4307 9.23002C72.7667 8.66069 73.2241 8.21736 73.8027 7.90002C74.3814 7.57336 75.0441 7.41002 75.7907 7.41002C76.5281 7.41002 77.1861 7.57336 77.7647 7.90002C78.3527 8.21736 78.8101 8.66069 79.1367 9.23002C79.4727 9.79002 79.6407 10.4434 79.6407 11.19C79.6407 11.9274 79.4727 12.5807 79.1367 13.15C78.8101 13.7194 78.3527 14.1674 77.7647 14.494C77.1861 14.8207 76.5281 14.984 75.7907 14.984ZM75.7907 13.808C76.2667 13.808 76.6914 13.7007 77.0647 13.486C77.4474 13.2714 77.7461 12.968 77.9607 12.576C78.1754 12.1747 78.2827 11.7127 78.2827 11.19C78.2827 10.658 78.1754 10.2007 77.9607 9.81802C77.7461 9.42602 77.4474 9.12269 77.0647 8.90802C76.6914 8.69336 76.2667 8.58602 75.7907 8.58602C75.3147 8.58602 74.8901 8.69336 74.5167 8.90802C74.1434 9.12269 73.8447 9.42602 73.6207 9.81802C73.3967 10.2007 73.2847 10.658 73.2847 11.19C73.2847 11.7127 73.3967 12.1747 73.6207 12.576C73.8447 12.968 74.1434 13.2714 74.5167 13.486C74.8901 13.7007 75.3147 13.808 75.7907 13.808ZM84.6775 14.984C83.9308 14.984 83.2681 14.8207 82.6895 14.494C82.1108 14.1674 81.6535 13.7194 81.3175 13.15C80.9815 12.5714 80.8135 11.918 80.8135 11.19C80.8135 10.4527 80.9815 9.79936 81.3175 9.23002C81.6535 8.66069 82.1108 8.21736 82.6895 7.90002C83.2681 7.57336 83.9308 7.41002 84.6775 7.41002C85.4148 7.41002 86.0728 7.57336 86.6515 7.90002C87.2395 8.21736 87.6968 8.66069 88.0235 9.23002C88.3595 9.79002 88.5275 10.4434 88.5275 11.19C88.5275 11.9274 88.3595 12.5807 88.0235 13.15C87.6968 13.7194 87.2395 14.1674 86.6515 14.494C86.0728 14.8207 85.4148 14.984 84.6775 14.984ZM84.6775 13.808C85.1535 13.808 85.5781 13.7007 85.9515 13.486C86.3341 13.2714 86.6328 12.968 86.8475 12.576C87.0621 12.1747 87.1695 11.7127 87.1695 11.19C87.1695 10.658 87.0621 10.2007 86.8475 9.81802C86.6328 9.42602 86.3341 9.12269 85.9515 8.90802C85.5781 8.69336 85.1535 8.58602 84.6775 8.58602C84.2015 8.58602 83.7768 8.69336 83.4035 8.90802C83.0301 9.12269 82.7315 9.42602 82.5075 9.81802C82.2835 10.2007 82.1715 10.658 82.1715 11.19C82.1715 11.7127 82.2835 12.1747 82.5075 12.576C82.7315 12.968 83.0301 13.2714 83.4035 13.486C83.7768 13.7007 84.2015 13.808 84.6775 13.808ZM91.4782 13.108L91.5062 11.386L95.7762 7.48002H97.4002L94.1242 10.7L93.3962 11.316L91.4782 13.108ZM90.3862 14.9V4.51202H91.7302V14.9H90.3862ZM96.0562 14.9L93.1442 11.288L94.0122 10.21L97.7082 14.9H96.0562Z" fill="black"/>
</svg>
