<svg width="92" height="20" viewBox="0 0 92 20" fill="none" xmlns="http://www.w3.org/2000/svg">
<path d="M0 10C0 15.5228 4.47715 20 10 20C15.5228 20 20 15.5228 20 10C20 4.47715 15.5228 0 10 0C4.47715 0 0 4.47715 0 10Z" fill="#2867B2"/>
<path d="M7.25 15H5.125V8.3125H7.25V15ZM6.1875 7.375C5.5 7.375 5 6.875 5 6.1875C5 5.5 5.5625 5 6.1875 5C6.875 5 7.375 5.5 7.375 6.1875C7.375 6.875 6.875 7.375 6.1875 7.375ZM15 15H12.875V11.375C12.875 10.3125 12.4375 10 11.8125 10C11.1875 10 10.5625 10.5 10.5625 11.4375V15H8.4375V8.3125H10.4375V9.25C10.625 8.8125 11.375 8.125 12.4375 8.125C13.625 8.125 14.875 8.8125 14.875 10.875V15H15Z" fill="white"/>
<path d="M29.8244 15.9V6.10002H31.2244V14.682H36.5304V15.9H29.8244ZM37.9409 15.9V8.48002H39.2849V15.9H37.9409ZM38.6129 7.05202C38.3515 7.05202 38.1322 6.96802 37.9549 6.80002C37.7869 6.63202 37.7029 6.42669 37.7029 6.18402C37.7029 5.93202 37.7869 5.72202 37.9549 5.55402C38.1322 5.38602 38.3515 5.30202 38.6129 5.30202C38.8742 5.30202 39.0889 5.38602 39.2569 5.55402C39.4342 5.71269 39.5229 5.91336 39.5229 6.15602C39.5229 6.40802 39.4389 6.62269 39.2709 6.80002C39.1029 6.96802 38.8835 7.05202 38.6129 7.05202ZM45.813 8.41002C46.4197 8.41002 46.9517 8.52669 47.409 8.76002C47.8757 8.99336 48.2397 9.34802 48.501 9.82402C48.7624 10.3 48.893 10.902 48.893 11.63V15.9H47.549V11.784C47.549 11.0654 47.3717 10.524 47.017 10.16C46.6717 9.79602 46.1817 9.61402 45.547 9.61402C45.071 9.61402 44.6557 9.70736 44.301 9.89402C43.9464 10.0807 43.671 10.356 43.475 10.72C43.2884 11.084 43.195 11.5367 43.195 12.078V15.9H41.851V8.48002H43.139V10.482L42.929 9.95002C43.1717 9.46469 43.545 9.08669 44.049 8.81602C44.553 8.54536 45.141 8.41002 45.813 8.41002ZM52.4723 14.108L52.5003 12.386L56.7703 8.48002H58.3943L55.1183 11.7L54.3903 12.316L52.4723 14.108ZM51.3803 15.9V5.51202H52.7243V15.9H51.3803ZM57.0503 15.9L54.1383 12.288L55.0063 11.21L58.7023 15.9H57.0503ZM63.0105 15.984C62.2172 15.984 61.5172 15.8207 60.9105 15.494C60.3132 15.1674 59.8465 14.7194 59.5105 14.15C59.1838 13.5807 59.0205 12.9274 59.0205 12.19C59.0205 11.4527 59.1792 10.7994 59.4965 10.23C59.8232 9.66069 60.2665 9.21736 60.8265 8.90002C61.3958 8.57336 62.0352 8.41002 62.7445 8.41002C63.4632 8.41002 64.0978 8.56869 64.6485 8.88602C65.1992 9.20336 65.6285 9.65136 65.9365 10.23C66.2538 10.7994 66.4125 11.4667 66.4125 12.232C66.4125 12.288 66.4078 12.3534 66.3985 12.428C66.3985 12.5027 66.3938 12.5727 66.3845 12.638H60.0705V11.672H65.6845L65.1385 12.008C65.1478 11.532 65.0498 11.1074 64.8445 10.734C64.6392 10.3607 64.3545 10.0714 63.9905 9.86602C63.6358 9.65136 63.2205 9.54402 62.7445 9.54402C62.2778 9.54402 61.8625 9.65136 61.4985 9.86602C61.1345 10.0714 60.8498 10.3654 60.6445 10.748C60.4392 11.1214 60.3365 11.5507 60.3365 12.036V12.26C60.3365 12.7547 60.4485 13.198 60.6725 13.59C60.9058 13.9727 61.2278 14.2714 61.6385 14.486C62.0492 14.7007 62.5205 14.808 63.0525 14.808C63.4912 14.808 63.8878 14.7334 64.2425 14.584C64.6065 14.4347 64.9238 14.2107 65.1945 13.912L65.9365 14.78C65.6005 15.172 65.1805 15.4707 64.6765 15.676C64.1818 15.8814 63.6265 15.984 63.0105 15.984ZM71.3448 15.984C70.6261 15.984 69.9821 15.8254 69.4128 15.508C68.8528 15.1907 68.4094 14.7474 68.0828 14.178C67.7561 13.6087 67.5928 12.946 67.5928 12.19C67.5928 11.434 67.7561 10.776 68.0828 10.216C68.4094 9.64669 68.8528 9.20336 69.4128 8.88602C69.9821 8.56869 70.6261 8.41002 71.3448 8.41002C71.9701 8.41002 72.5348 8.55002 73.0388 8.83002C73.5428 9.11002 73.9441 9.53002 74.2428 10.09C74.5508 10.65 74.7048 11.35 74.7048 12.19C74.7048 13.03 74.5554 13.73 74.2568 14.29C73.9674 14.85 73.5708 15.2747 73.0668 15.564C72.5628 15.844 71.9888 15.984 71.3448 15.984ZM71.4568 14.808C71.9234 14.808 72.3434 14.7007 72.7168 14.486C73.0994 14.2714 73.3981 13.968 73.6128 13.576C73.8368 13.1747 73.9488 12.7127 73.9488 12.19C73.9488 11.658 73.8368 11.2007 73.6128 10.818C73.3981 10.426 73.0994 10.1227 72.7168 9.90802C72.3434 9.69336 71.9234 9.58602 71.4568 9.58602C70.9808 9.58602 70.5561 9.69336 70.1828 9.90802C69.8094 10.1227 69.5108 10.426 69.2868 10.818C69.0628 11.2007 68.9508 11.658 68.9508 12.19C68.9508 12.7127 69.0628 13.1747 69.2868 13.576C69.5108 13.968 69.8094 14.2714 70.1828 14.486C70.5561 14.7007 70.9808 14.808 71.4568 14.808ZM73.9908 15.9V13.898L74.0748 12.176L73.9348 10.454V5.51202H75.2788V15.9H73.9908ZM78.0177 15.9V6.10002H79.4177V15.9H78.0177ZM86.1177 8.41002C86.7244 8.41002 87.2564 8.52669 87.7137 8.76002C88.1804 8.99336 88.5444 9.34802 88.8057 9.82402C89.067 10.3 89.1977 10.902 89.1977 11.63V15.9H87.8537V11.784C87.8537 11.0654 87.6764 10.524 87.3217 10.16C86.9764 9.79602 86.4864 9.61402 85.8517 9.61402C85.3757 9.61402 84.9604 9.70736 84.6057 9.89402C84.251 10.0807 83.9757 10.356 83.7797 10.72C83.593 11.084 83.4997 11.5367 83.4997 12.078V15.9H82.1557V8.48002H83.4437V10.482L83.2337 9.95002C83.4764 9.46469 83.8497 9.08669 84.3537 8.81602C84.8577 8.54536 85.4457 8.41002 86.1177 8.41002Z" fill="black"/>
</svg>
