<svg width="79" height="20" viewBox="0 0 79 20" fill="none" xmlns="http://www.w3.org/2000/svg">
<path d="M0 10C0 15.5228 4.47715 20 10 20C15.5228 20 20 15.5228 20 10C20 4.47715 15.5228 0 10 0C4.47715 0 0 4.47715 0 10Z" fill="#1DA1F2"/>
<path d="M15 6.875C14.625 7.0625 14.25 7.125 13.8125 7.1875C14.25 6.9375 14.5625 6.5625 14.6875 6.0625C14.3125 6.3125 13.875 6.4375 13.375 6.5625C13 6.1875 12.4375 5.9375 11.875 5.9375C10.5625 5.9375 9.5625 7.1875 9.875 8.4375C8.1875 8.375 6.6875 7.5625 5.625 6.3125C5.0625 7.25 5.375 8.4375 6.25 9.0625C5.9375 9.0625 5.625 8.9375 5.3125 8.8125C5.3125 9.75 6 10.625 6.9375 10.875C6.625 10.9375 6.3125 11 6 10.9375C6.25 11.75 7 12.375 7.9375 12.375C7.1875 12.9375 6.0625 13.25 5 13.125C5.9375 13.6875 7 14.0625 8.125 14.0625C11.9375 14.0625 14.0625 10.875 13.9375 7.9375C14.375 7.6875 14.75 7.3125 15 6.875Z" fill="white"/>
<path d="M31.7704 15.9V7.31802H28.4104V6.10002H36.5164V7.31802H33.1564V15.9H31.7704ZM38.9483 15.9L36.1903 8.48002H37.4643L39.9143 15.2H39.3123L41.8603 8.48002H42.9943L45.4863 15.2H44.8983L47.4043 8.48002H48.6083L45.8363 15.9H44.5483L42.2103 9.76802H42.6023L40.2363 15.9H38.9483ZM49.9721 15.9V8.48002H51.3161V15.9H49.9721ZM50.6441 7.05202C50.3828 7.05202 50.1635 6.96802 49.9861 6.80002C49.8181 6.63202 49.7341 6.42669 49.7341 6.18402C49.7341 5.93202 49.8181 5.72202 49.9861 5.55402C50.1635 5.38602 50.3828 5.30202 50.6441 5.30202C50.9055 5.30202 51.1201 5.38602 51.2881 5.55402C51.4655 5.71269 51.5541 5.91336 51.5541 6.15602C51.5541 6.40802 51.4701 6.62269 51.3021 6.80002C51.1341 6.96802 50.9148 7.05202 50.6441 7.05202ZM56.4303 15.984C55.6836 15.984 55.1049 15.7834 54.6943 15.382C54.2836 14.9807 54.0783 14.4067 54.0783 13.66V6.85602H55.4223V13.604C55.4223 14.0054 55.5203 14.3134 55.7163 14.528C55.9216 14.7427 56.2109 14.85 56.5843 14.85C57.0043 14.85 57.3543 14.7334 57.6343 14.5L58.0543 15.466C57.8489 15.6434 57.6016 15.774 57.3123 15.858C57.0323 15.942 56.7383 15.984 56.4303 15.984ZM52.8183 9.58602V8.48002H57.5503V9.58602H52.8183ZM62.0494 15.984C61.3028 15.984 60.7241 15.7834 60.3134 15.382C59.9028 14.9807 59.6974 14.4067 59.6974 13.66V6.85602H61.0414V13.604C61.0414 14.0054 61.1394 14.3134 61.3354 14.528C61.5408 14.7427 61.8301 14.85 62.2034 14.85C62.6234 14.85 62.9734 14.7334 63.2534 14.5L63.6734 15.466C63.4681 15.6434 63.2208 15.774 62.9314 15.858C62.6514 15.942 62.3574 15.984 62.0494 15.984ZM58.4374 9.58602V8.48002H63.1694V9.58602H58.4374ZM68.3562 15.984C67.5629 15.984 66.8629 15.8207 66.2562 15.494C65.6589 15.1674 65.1922 14.7194 64.8562 14.15C64.5295 13.5807 64.3662 12.9274 64.3662 12.19C64.3662 11.4527 64.5249 10.7994 64.8422 10.23C65.1689 9.66069 65.6122 9.21736 66.1722 8.90002C66.7415 8.57336 67.3809 8.41002 68.0902 8.41002C68.8089 8.41002 69.4435 8.56869 69.9942 8.88602C70.5449 9.20336 70.9742 9.65136 71.2822 10.23C71.5995 10.7994 71.7582 11.4667 71.7582 12.232C71.7582 12.288 71.7535 12.3534 71.7442 12.428C71.7442 12.5027 71.7395 12.5727 71.7302 12.638H65.4162V11.672H71.0302L70.4842 12.008C70.4935 11.532 70.3955 11.1074 70.1902 10.734C69.9849 10.3607 69.7002 10.0714 69.3362 9.86602C68.9815 9.65136 68.5662 9.54402 68.0902 9.54402C67.6235 9.54402 67.2082 9.65136 66.8442 9.86602C66.4802 10.0714 66.1955 10.3654 65.9902 10.748C65.7849 11.1214 65.6822 11.5507 65.6822 12.036V12.26C65.6822 12.7547 65.7942 13.198 66.0182 13.59C66.2515 13.9727 66.5735 14.2714 66.9842 14.486C67.3949 14.7007 67.8662 14.808 68.3982 14.808C68.8369 14.808 69.2335 14.7334 69.5882 14.584C69.9522 14.4347 70.2695 14.2107 70.5402 13.912L71.2822 14.78C70.9462 15.172 70.5262 15.4707 70.0222 15.676C69.5275 15.8814 68.9722 15.984 68.3562 15.984ZM73.6245 15.9V8.48002H74.9125V10.496L74.7865 9.99202C74.9918 9.47869 75.3371 9.08669 75.8225 8.81602C76.3078 8.54536 76.9051 8.41002 77.6145 8.41002V9.71202C77.5585 9.70269 77.5025 9.69802 77.4465 9.69802C77.3998 9.69802 77.3531 9.69802 77.3065 9.69802C76.5878 9.69802 76.0185 9.91269 75.5985 10.342C75.1785 10.7714 74.9685 11.392 74.9685 12.204V15.9H73.6245Z" fill="black"/>
</svg>
